<?xml version="1.0" standalone="no"?>
<!DOCTYPE svg PUBLIC "-//W3C//DTD SVG 20010904//EN"
 "http://www.w3.org/TR/2001/REC-SVG-20010904/DTD/svg10.dtd">
<svg version="1.0" xmlns="http://www.w3.org/2000/svg"
 width="500.000000pt" height="500.000000pt" viewBox="0 0 500.000000 500.000000"
 preserveAspectRatio="xMidYMid meet">

<g transform="translate(0.000000,500.000000) scale(0.100000,-0.100000)"
fill="#000000" stroke="none">
<path d="M2195 3537 c-19 -19 -35 -44 -35 -55 0 -25 -43 -37 -111 -33 -74 4
-129 -53 -143 -149 -5 -35 -13 -49 -34 -61 -38 -21 -65 -81 -70 -154 -4 -53
-8 -63 -39 -90 -28 -24 -36 -39 -40 -75 -4 -39 -1 -51 21 -77 22 -26 24 -32
11 -43 -23 -19 -30 -76 -11 -104 14 -22 14 -28 1 -53 -21 -40 -19 -49 24 -96
23 -25 41 -57 45 -78 7 -39 27 -62 65 -74 17 -5 20 -10 12 -18 -14 -14 -14
-62 -1 -88 6 -10 24 -26 40 -34 16 -8 32 -26 36 -39 18 -74 127 -110 194 -64
19 13 41 36 48 51 14 29 32 36 32 12 0 -28 38 -55 78 -55 48 0 124 47 152 92
28 46 26 100 -4 135 l-25 28 22 23 c19 20 23 38 25 118 3 62 8 94 15 94 8 0
12 -30 12 -94 0 -86 2 -97 24 -120 l24 -25 -27 -31 c-46 -55 -30 -119 45 -184
69 -59 151 -61 172 -6 6 17 14 30 18 30 4 0 16 -16 28 -35 53 -90 189 -81 229
15 10 21 28 42 43 49 34 15 53 60 45 106 -5 26 -3 35 7 35 26 0 48 26 58 70 7
31 21 55 44 77 27 24 35 40 35 66 0 19 -7 40 -15 47 -14 11 -14 15 2 32 22 24
20 83 -3 109 -17 18 -16 20 4 42 17 18 22 36 22 74 0 47 -3 54 -38 85 -35 29
-38 37 -34 70 7 57 -23 132 -69 171 -30 26 -39 41 -39 66 0 41 -32 103 -67
131 -23 18 -36 21 -77 16 -54 -6 -106 14 -106 40 0 9 -16 32 -35 51 -33 33
-37 35 -87 29 -29 -4 -71 -6 -93 -6 -22 0 -50 -2 -63 -5 -28 -7 -52 -58 -52
-110 0 -19 -4 -35 -10 -35 -5 0 -10 23 -10 50 0 72 -30 101 -103 100 -28 0
-76 2 -105 6 -50 6 -54 4 -87 -29z m135 8 c21 -11 31 -25 36 -50 7 -39 -4 -58
-47 -80 -19 -10 -29 -25 -34 -52 -3 -21 -9 -48 -12 -60 -3 -13 0 -23 5 -23 6
0 14 17 17 38 11 63 15 70 51 92 39 25 52 61 37 101 -9 22 -8 29 4 33 49 19
83 -16 83 -83 0 -61 -20 -101 -59 -117 -20 -8 -33 -23 -37 -41 -4 -15 -18 -41
-31 -56 -12 -16 -23 -32 -23 -36 0 -16 38 -57 94 -101 59 -47 66 -65 44 -113
-17 -36 -40 -34 -86 8 -30 26 -41 32 -50 23 -15 -15 -16 -31 -1 -23 6 4 28 -7
49 -24 21 -17 50 -31 63 -31 14 0 28 -7 31 -16 11 -28 6 -179 -6 -207 -11 -23
-19 -27 -55 -27 -39 0 -43 2 -43 24 0 14 -10 30 -25 40 -30 20 -32 36 -5 59
32 27 26 70 -17 111 -20 19 -41 32 -46 29 -5 -3 7 -19 27 -35 42 -34 48 -74
16 -103 -27 -24 -25 -51 4 -71 14 -8 26 -27 28 -42 3 -25 7 -27 53 -30 63 -4
75 -15 75 -64 0 -34 -3 -39 -17 -33 -10 4 -31 10 -48 12 -75 9 -135 27 -135
40 0 25 -1 28 -22 50 -32 34 -81 47 -124 33 -33 -11 -38 -10 -64 15 -15 15
-30 22 -34 17 -3 -5 10 -23 28 -41 32 -31 33 -31 62 -16 57 30 134 -9 126 -65
-2 -16 -10 -35 -18 -41 -15 -12 -19 -49 -6 -49 4 0 12 10 17 22 16 35 39 44
78 30 18 -7 50 -12 71 -12 20 0 46 -5 56 -10 37 -20 34 -107 -4 -132 -18 -12
-131 -9 -144 4 -7 7 -12 31 -12 55 0 24 -4 43 -10 43 -16 0 -12 -91 5 -110 14
-15 13 -19 -5 -35 -20 -18 -21 -18 -55 15 -32 31 -35 39 -34 85 2 73 2 71 -38
116 -43 47 -119 89 -162 89 -22 0 -35 8 -47 26 -9 14 -23 23 -30 20 -23 -9
-17 58 6 79 16 14 30 17 70 12 49 -6 50 -5 85 37 40 49 43 66 15 91 -19 17
-18 18 27 70 l45 53 72 4 c48 2 75 -1 85 -10 21 -20 27 -5 7 17 -13 15 -15 24
-8 37 8 15 -3 32 -59 93 -66 71 -68 76 -54 97 23 36 20 100 -6 118 -20 14 -21
18 -9 47 15 35 63 69 98 69 13 0 36 -7 52 -15z m441 -1 c18 -9 37 -31 45 -51
14 -33 14 -36 -5 -50 -25 -17 -29 -87 -6 -120 14 -19 10 -25 -55 -99 -52 -60
-66 -82 -58 -91 8 -10 6 -19 -7 -33 -21 -23 -13 -39 10 -20 10 9 39 12 81 11
62 -2 68 -5 97 -38 58 -66 61 -72 43 -92 -25 -28 -19 -53 25 -98 33 -35 44
-41 59 -33 30 16 68 12 90 -10 25 -25 27 -80 4 -80 -9 0 -24 -10 -34 -23 -11
-14 -31 -24 -51 -25 -62 -5 -127 -49 -174 -118 -19 -28 -25 -50 -25 -91 0 -47
-4 -59 -30 -85 -30 -29 -32 -30 -50 -13 -17 16 -18 20 -5 38 17 24 21 122 5
112 -5 -3 -10 -26 -10 -50 0 -53 -16 -65 -89 -65 -56 0 -86 20 -97 65 -14 56
28 95 101 95 19 0 46 5 61 10 33 13 74 -10 74 -41 0 -11 5 -17 10 -14 17 10
11 44 -10 57 -12 8 -20 24 -20 40 0 53 81 86 144 57 21 -10 27 -8 54 22 17 19
27 35 21 37 -5 2 -19 -9 -32 -24 -20 -23 -26 -25 -44 -15 -56 29 -149 -4 -159
-58 -7 -34 -42 -51 -106 -51 -40 0 -77 -14 -91 -34 -4 -6 -6 14 -5 44 l3 55
40 3 c70 4 85 11 85 35 0 13 11 33 25 45 30 26 32 53 5 77 -29 27 -25 54 17
97 45 46 23 52 -24 6 -40 -38 -46 -90 -13 -110 27 -17 25 -42 -5 -62 -16 -10
-25 -26 -25 -41 0 -23 -4 -25 -45 -25 -38 0 -45 3 -45 19 0 11 -4 23 -10 26
-15 9 -13 188 2 203 7 7 24 12 38 12 16 0 37 12 55 30 16 17 34 29 41 28 7 -2
14 2 16 7 7 24 -39 14 -67 -15 -36 -38 -66 -39 -82 -3 -22 46 -15 60 56 119
82 67 94 95 57 133 -13 14 -26 37 -28 51 -2 17 -14 31 -37 42 -42 21 -61 57
-61 118 0 41 4 52 26 69 29 23 42 25 64 11 12 -7 12 -12 2 -22 -28 -28 -12
-80 33 -108 28 -17 36 -30 45 -75 6 -30 16 -55 22 -55 5 0 8 6 5 14 -3 7 -8
34 -12 59 -6 39 -13 50 -46 72 -46 30 -53 69 -16 102 39 36 72 41 118 17z
m-701 -114 c11 -6 17 -17 14 -25 -6 -15 11 -37 139 -178 60 -66 67 -78 57 -96
-9 -18 -20 -21 -70 -21 -33 0 -60 3 -60 8 -1 16 -129 147 -136 139 -5 -4 -4
-11 1 -15 6 -4 37 -38 69 -75 l59 -68 -38 -39 -39 -40 -38 37 c-35 34 -37 41
-40 102 -3 62 -5 67 -35 86 -23 15 -32 28 -33 48 0 42 23 90 59 120 34 29 60
33 91 17z m108 -2 c16 -16 15 -70 -1 -92 -12 -16 -15 -14 -45 18 -33 37 -41
71 -19 79 22 10 53 7 65 -5z m706 6 c25 -10 19 -40 -16 -80 -30 -33 -33 -35
-45 -18 -16 22 -17 76 -1 92 13 13 37 15 62 6z m143 -26 c22 -21 36 -53 48
-114 5 -28 2 -34 -29 -52 -35 -21 -36 -23 -36 -81 0 -51 -4 -64 -32 -99 -18
-23 -37 -41 -43 -41 -5 1 -25 18 -44 40 l-33 39 54 62 c75 88 82 98 70 98 -6
0 -40 -34 -74 -75 l-63 -75 -57 0 c-47 0 -59 4 -68 20 -9 18 2 34 90 133 63
70 100 120 100 134 0 46 72 53 117 11z m-494 -30 c13 -20 -6 -48 -34 -48 -28
0 -43 35 -23 55 19 19 43 16 57 -7z m-67 -50 c10 -16 5 -90 -7 -102 -12 -13
-12 -53 1 -61 6 -3 10 -22 10 -41 l0 -35 -65 53 c-36 28 -65 58 -65 65 0 8 11
24 25 37 14 13 25 33 25 44 0 21 34 52 57 52 6 0 15 -5 19 -12z m122 -4 c12
-8 22 -24 22 -36 0 -11 11 -31 25 -44 14 -13 25 -29 25 -35 0 -7 -28 -39 -62
-71 l-63 -58 -3 37 c-2 19 1 40 7 46 14 14 14 64 1 72 -14 9 -13 78 2 93 15
15 19 15 46 -4z m-76 -44 c-2 -16 -8 -30 -13 -30 -5 0 -9 14 -9 30 0 18 5 30
13 30 9 0 12 -10 9 -30z m-560 -57 c14 -12 18 -31 18 -77 0 -61 -1 -62 -51
-111 -41 -41 -49 -55 -45 -76 8 -40 -20 -59 -82 -59 -49 0 -52 1 -52 26 0 24
50 84 69 84 4 0 7 28 7 63 -1 117 77 203 136 150z m1171 -3 c33 -27 61 -109
54 -166 -4 -35 -1 -45 13 -49 27 -9 59 -48 66 -83 l7 -32 -51 0 c-60 0 -92 26
-92 72 0 21 -13 42 -50 79 -47 47 -50 53 -50 100 0 40 5 55 25 74 29 30 45 31
78 5z m-592 -6 c9 -11 10 -20 2 -32 -15 -24 -44 -27 -59 -7 -28 38 27 75 57
39z m-20 -77 c-1 -4 -1 -32 -1 -62 0 -30 -4 -55 -10 -55 -6 0 -10 29 -10 66 0
42 4 64 11 62 6 -2 10 -7 10 -11z m-466 -142 c0 -5 8 -21 18 -35 21 -29 21
-44 3 -59 -10 -9 -26 3 -72 53 l-59 64 25 29 25 30 30 -36 c17 -19 30 -40 30
-46z m994 51 c26 -28 26 -29 -46 -111 -36 -40 -45 -46 -58 -35 -19 16 -19 30
2 60 10 14 18 30 18 35 0 12 47 74 56 74 3 1 16 -10 28 -23z m-503 -68 c8 -27
-17 -52 -44 -44 -29 10 -34 34 -12 56 22 22 46 17 56 -12z m-552 -42 c39 -45
53 -67 44 -72 -21 -13 -125 -7 -147 8 l-21 15 20 26 c11 14 20 39 20 56 0 47
21 39 84 -33z m1114 23 c2 -19 11 -42 20 -52 14 -16 14 -19 -1 -34 -18 -18
-143 -27 -153 -11 -7 11 106 140 120 135 6 -2 12 -19 14 -38z m-587 -52 c-1
-4 -1 -41 -1 -82 0 -43 -4 -75 -10 -75 -6 0 -10 35 -10 86 0 57 4 84 11 82 6
-2 10 -7 10 -11z m-642 -51 c14 -15 19 -26 12 -31 -6 -3 -11 -27 -11 -52 0
-76 -56 -118 -102 -76 -25 22 -23 71 4 101 l23 24 -28 20 c-40 29 -34 38 26
38 44 0 58 -4 76 -24z m1381 5 c0 -6 -10 -17 -22 -26 -19 -13 -21 -18 -10 -33
39 -55 35 -110 -10 -126 -19 -7 -32 -4 -51 10 -22 16 -26 27 -27 70 0 27 -5
55 -12 62 -9 9 -7 16 7 32 14 15 31 20 72 20 29 0 53 -4 53 -9z m-714 -153 c8
-27 -17 -52 -44 -44 -29 10 -34 34 -12 56 22 22 46 17 56 -12z m-609 -3 c2 -6
-6 -16 -17 -23 -18 -11 -20 -10 -20 14 0 18 5 25 17 22 9 -2 18 -8 20 -13z
m1181 -15 c3 -18 0 -21 -13 -16 -9 3 -21 6 -26 6 -6 0 -5 9 1 21 14 25 34 20
38 -11z m-1287 -71 c-53 -52 -71 -55 -71 -14 0 32 25 55 59 55 16 0 35 7 42
16 9 11 15 12 17 5 2 -7 -19 -34 -47 -62z m225 40 c24 -11 59 -38 78 -60 30
-32 36 -47 36 -84 0 -36 -4 -47 -25 -61 -23 -15 -27 -15 -50 0 -27 18 -33 42
-12 49 6 2 9 8 4 13 -4 4 -18 -2 -30 -15 -22 -22 -22 -22 -2 -39 11 -10 26
-24 32 -33 12 -14 8 -15 -33 -4 -41 10 -63 27 -64 47 0 3 12 20 26 37 19 23
22 31 11 31 -26 0 -59 -51 -53 -81 4 -21 0 -29 -20 -38 -36 -16 -58 -14 -88
10 -19 15 -26 30 -26 54 0 23 -7 39 -22 49 l-21 15 27 36 c33 43 120 95 160
95 16 0 49 -9 72 -21z m1151 -9 c19 0 33 -6 37 -16 8 -21 8 -59 -1 -67 -8 -8
-103 88 -103 104 0 8 6 6 18 -4 10 -10 32 -17 49 -17z m-81 -12 c26 -18 56
-45 67 -60 20 -26 20 -26 -2 -54 -11 -14 -21 -41 -21 -58 0 -53 -29 -66 -108
-50 -28 6 -30 9 -25 40 5 27 1 40 -17 59 -13 13 -27 22 -32 19 -5 -4 0 -16 12
-29 34 -36 23 -64 -32 -85 -27 -10 -48 -15 -48 -12 0 3 14 21 32 39 26 27 29
35 18 48 -14 16 -40 21 -40 6 0 -5 7 -12 16 -15 13 -5 10 -11 -14 -31 -30 -25
-31 -25 -61 -8 -25 15 -31 24 -31 53 0 77 104 170 191 170 36 0 57 -7 95 -32z
m-946 -206 c0 -8 -14 -16 -62 -40 -21 -10 -4 16 20 30 30 19 42 22 42 10z
m716 -24 c9 -6 -5 -24 -43 -60 -31 -30 -57 -64 -60 -80 -6 -33 -10 -34 -35
-11 -21 18 -24 67 -5 82 6 6 26 22 44 36 18 14 35 35 38 45 5 17 10 18 28 9
12 -7 27 -16 33 -21z m-823 -10 c12 -6 37 -22 55 -36 l33 -26 -23 -12 c-13 -7
-40 -13 -60 -14 -24 0 -47 -9 -66 -25 -20 -17 -36 -23 -49 -19 -31 11 -63 46
-63 69 0 22 32 58 60 68 27 10 91 7 113 -5z m378 -9 c23 -19 23 -20 2 -10 -39
19 -114 13 -140 -11 -19 -18 -23 -19 -23 -5 0 46 117 65 161 26z m591 11 c21
-6 44 -18 53 -26 36 -36 3 -114 -48 -114 -13 0 -32 9 -42 20 -11 12 -31 20
-50 20 -18 0 -47 6 -65 13 l-32 14 39 32 c31 26 69 44 103 50 3 1 22 -4 42 -9z
m-331 -16 c14 -12 16 -26 12 -67 -4 -43 -1 -56 15 -72 15 -16 17 -25 9 -42
-23 -51 -90 -40 -158 26 -42 41 -49 53 -49 86 0 59 30 85 98 85 37 0 61 -5 73
-16z m-441 -36 c0 -14 -15 -8 -45 17 l-30 25 37 -17 c21 -10 38 -21 38 -25z
m24 -105 c-9 -18 -21 -30 -26 -27 -4 3 1 18 12 34 11 15 21 41 21 57 l2 28 4
-30 c3 -17 -3 -44 -13 -62z m-96 47 c4 -12 2 -13 -9 -4 -21 17 -48 3 -78 -42
-31 -45 -66 -54 -106 -28 -14 9 -23 19 -21 22 3 3 12 -1 20 -7 8 -7 30 -11 48
-9 26 2 37 10 50 37 9 19 23 38 30 43 19 12 61 5 66 -12z m712 -30 c0 -22 36
-50 64 -50 11 0 28 7 38 17 16 14 18 14 18 1 0 -23 -53 -76 -83 -84 -90 -22
-177 86 -117 146 19 19 22 19 50 5 18 -9 30 -24 30 -35z m-820 20 c0 -5 -11
-10 -25 -10 -14 0 -28 -7 -31 -15 -4 -8 -10 -12 -16 -9 -15 10 23 44 49 44 12
0 23 -4 23 -10z m894 -6 c20 -8 21 -33 1 -41 -16 -5 -55 22 -55 39 0 9 31 11
54 2z m-747 -26 c-3 -8 -6 -5 -6 6 -1 11 2 17 5 13 3 -3 4 -12 1 -19z"/>
<path d="M2740 1840 c0 -123 1 -130 20 -130 18 0 20 7 20 65 0 53 3 66 19 75
39 20 51 3 51 -71 0 -68 0 -69 26 -69 l27 0 -5 77 c-6 90 -20 108 -80 99 l-38
-6 0 45 c0 38 -3 45 -20 45 -19 0 -20 -7 -20 -130z"/>
<path d="M3137 1964 c-12 -12 -8 -42 6 -47 21 -8 39 8 35 29 -3 19 -29 30 -41
18z"/>
<path d="M1510 1835 l0 -125 25 0 c23 0 25 3 25 50 0 38 4 50 15 50 9 0 30
-22 47 -50 26 -41 36 -50 60 -50 l29 0 -36 52 -35 52 22 23 c29 31 28 81 -1
105 -17 13 -40 18 -87 18 l-64 0 0 -125z m122 72 c19 -30 -7 -67 -48 -67 -22
0 -24 4 -24 46 l0 47 32 -7 c18 -3 36 -12 40 -19z"/>
<path d="M2962 1944 c-15 -10 -22 -25 -22 -47 0 -44 8 -52 63 -76 40 -17 48
-25 45 -43 -4 -27 -45 -36 -79 -18 -17 10 -23 9 -30 -1 -13 -21 -11 -25 16
-37 55 -25 118 -7 134 39 16 47 3 69 -55 95 -56 25 -68 46 -35 64 14 7 28 7
47 0 20 -8 29 -8 35 2 22 35 -74 54 -119 22z"/>
<path d="M3247 1933 c-4 -3 -7 -13 -7 -21 0 -8 -8 -21 -17 -29 -13 -10 -15
-16 -5 -19 7 -4 12 -27 12 -64 0 -40 5 -64 16 -74 17 -17 51 -21 73 -7 11 7
11 10 0 17 -8 5 -18 9 -24 9 -5 0 -11 26 -13 58 -3 52 -1 57 18 57 11 0 20 7
20 15 0 8 -9 15 -20 15 -15 0 -20 7 -20 25 0 24 -18 34 -33 18z"/>
<path d="M1753 1875 c-49 -34 -37 -133 18 -155 48 -20 129 4 102 31 -5 5 -22
4 -42 -4 -30 -11 -34 -10 -53 13 l-20 25 58 5 c55 5 59 7 62 32 7 56 -73 90
-125 53z m85 -37 c3 -15 -4 -18 -32 -18 -34 0 -47 15 -29 34 13 13 58 1 61
-16z"/>
<path d="M1927 1872 c-20 -22 -22 -56 -4 -69 6 -6 26 -15 42 -20 47 -15 39
-38 -12 -36 -30 1 -43 -2 -43 -12 0 -30 81 -34 110 -5 35 35 24 61 -34 85 -46
20 -42 41 8 38 25 -2 36 2 36 11 0 30 -78 36 -103 8z"/>
<path d="M2103 1878 c-50 -24 -53 -110 -6 -148 30 -23 81 -26 108 -7 27 21 11
38 -25 26 -33 -12 -70 2 -70 26 0 11 13 15 54 15 60 0 69 9 53 53 -15 44 -64
59 -114 35z m77 -38 c10 -18 8 -20 -30 -20 -41 0 -49 7 -28 28 18 18 46 14 58
-8z"/>
<path d="M2275 1877 c-27 -20 -11 -39 22 -26 33 12 53 5 53 -19 0 -14 -9 -21
-36 -25 -44 -7 -64 -23 -64 -51 0 -42 46 -60 90 -36 13 7 21 7 25 0 3 -5 13
-10 21 -10 11 0 14 15 14 61 0 59 -11 96 -34 111 -18 12 -71 9 -91 -5z m73
-109 c-2 -17 -11 -24 -30 -26 -35 -4 -39 24 -5 38 34 14 39 12 35 -12z"/>
<path d="M2440 1800 c0 -83 1 -90 20 -90 17 0 20 7 20 51 0 59 13 89 39 89 16
0 31 18 31 36 0 11 -35 2 -52 -13 -17 -15 -18 -15 -18 0 0 10 -8 17 -20 17
-19 0 -20 -7 -20 -90z"/>
<path d="M2598 1876 c-43 -32 -45 -109 -5 -146 24 -23 75 -26 102 -7 28 21 11
38 -24 24 -40 -15 -61 4 -61 53 0 46 19 64 59 55 35 -7 50 9 22 24 -27 15 -72
13 -93 -3z"/>
<path d="M3130 1800 c0 -89 0 -90 25 -90 25 0 25 1 25 90 0 89 0 90 -25 90
-25 0 -25 -1 -25 -90z"/>
<path d="M3345 1869 c4 -13 20 -50 35 -84 26 -57 26 -62 12 -93 -9 -17 -12
-35 -8 -39 16 -16 40 18 86 125 48 110 48 112 25 112 -18 0 -26 -8 -36 -37
-25 -80 -29 -82 -53 -22 -17 40 -28 55 -45 57 -20 3 -22 1 -16 -19z"/>
</g>
</svg>
